Coordinates
version=1
nRows=29
nColumns=22
inDegrees=yes

Units are S.I. units (second, meters, Newtons, ...)
If the header above contains a line with 'inDegrees', this indicates whether rotational values are in degrees (yes) or radians (no).

endheader
time	pelvis_tilt	pelvis_list	pelvis_rotation	pelvis_tx	pelvis_ty	pelvis_tz	hip_flexion_r	hip_adduction_r	hip_rotation_r	knee_angle_r	ankle_angle_r	subtalar_angle_r	hip_flexion_l	hip_adduction_l	hip_rotation_l	knee_angle_l	ankle_angle_l	subtalar_angle_l	lumbar_extension	lumbar_bending	lumbar_rotation
      1.42000000	     -6.82720352	     -6.75805816	      4.76858062	     -1.03679916	      0.97038485	     -0.23096928	      9.21278638	      8.66359097	     -6.50604679	    -15.95352591	     12.13527719	     -0.43508992	      7.50612307	     -9.00971958	      4.49109139	    -11.46706841	     13.17808649	      3.07460093	      1.67522198	      6.25549403	     -6.54462877
      1.43000000	     -6.85632064	     -6.75413543	      4.72817171	     -1.03583291	      0.97012189	     -0.22968855	      9.18443486	      8.74611573	     -6.44360315	    -15.96167154	     12.22589581	     -0.48843751	      7.79996705	     -9.06706777	      4.52243287	    -12.03353026	     13.37260382	      3.20025360	      1.62762804	      6.26398626	     -6.53864346
      1.44000000	     -6.86236443	     -6.75874557	      4.67711335	     -1.03479220	      0.96985782	     -0.22838014	      9.12087733	      8.84227179	     -6.37577384	    -15.95837828	     12.32677302	     -0.53065034	      8.10628391	     -9.13512431	      4.55377610	    -12.67383483	     13.59175920	      3.28816442	      1.55778187	      6.28073447	     -6.51136497
      1.45000000	     -6.89947546	     -6.77764090	      4.62963858	     -1.03373973	      0.96953540	     -0.22706789	      9.09267948	      8.95247483	     -6.28574515	    -15.95800691	     12.40377615	     -0.58708319	      8.51889917	     -9.20912510	      4.60351864	    -13.43633023	     13.80247752	      3.45954513	      1.52827505	      6.31040169	     -6.51336566
      1.46000000	     -6.89478030	     -6.80250607	      4.57266544	     -1.03258430	      0.96922197	     -0.22574651	      9.01405929	      9.07187449	     -6.21025440	    -15.95875554	     12.50745262	     -0.63497491	      8.93127843	     -9.28983740	      4.65173912	    -14.28987649	     14.05067676	      3.58333388	      1.46023385	      6.34855170	     -6.47600283
      1.47000000	     -6.88566143	     -6.83847221	      4.51636698	     -1.03136435	      0.96888300	     -0.22443580	      8.92262342	      9.20252196	     -6.13957927	    -15.95081095	     12.61602803	     -0.68181850	      9.40657749	     -9.37444783	      4.70841686	    -15.26510640	     14.30705522	      3.70153442	      1.39405847	      6.39904821	     -6.43289476
      1.48000000	     -6.86534585	     -6.88073466	      4.46216817	     -1.03009894	      0.96851591	     -0.22314036	      8.82550256	      9.33760107	     -6.08061832	    -15.96029578	     12.74450800	     -0.73672008	      9.93953436	     -9.45758978	      4.78228942	    -16.36398812	     14.57750377	      3.83369055	      1.31920261	      6.45697792	     -6.38659164
      1.49000000	     -6.77845222	     -6.95065314	      4.39429385	     -1.02870013	      0.96820019	     -0.22183245	      8.62770923	      9.51204921	     -6.00499000	    -15.92903795	     12.87367883	     -0.76233676	     10.44984001	     -9.57294192	      4.83965556	    -17.56124896	     14.85414049	      3.83701791	      1.17913481	      6.55073720	     -6.29613626
      1.50000000	     -6.77719334	     -7.03533522	      4.36178254	     -1.02734091	      0.96775736	     -0.22058324	      8.52291462	      9.68903605	     -5.95478023	    -15.88927416	     12.95589307	     -0.81112863	     11.16465588	     -9.67704115	      4.95212311	    -18.92737196	     15.07611900	      3.95248947	      1.14093571	      6.65232387	     -6.27534752
      1.51000000	     -6.69003172	     -7.13385263	      4.31277852	     -1.02586691	      0.96739298	     -0.21933242	      8.31643487	      9.88981476	     -5.88814304	    -15.84782071	     13.05907602	     -0.84482158	     11.82458427	     -9.79926965	      5.05354114	    -20.37364088	     15.31649218	      3.98134322	      1.00855845	      6.77697966	     -6.21624146
      1.52000000	     -6.63471322	     -7.22598098	      4.28564766	     -1.02433342	      0.96697004	     -0.21814683	      8.13138054	     10.07382317	     -5.87327948	    -15.79042448	     13.19591202	     -0.90351588	     12.58442249	     -9.89433688	      5.19115520	    -21.92629660	     15.52112282	      4.05641331	      0.92267412	      6.89021983	     -6.16147675
      1.53000000	     -6.50362838	     -7.33673330	      4.24706588	     -1.02266897	      0.96665587	     -0.21696716	      7.83339127	     10.29013731	     -5.81031156	    -15.68852693	     13.27514978	     -0.92471646	     13.28849223	    -10.01103059	      5.32052632	    -23.53108058	     15.70402994	      4.02522751	      0.75764079	      7.03031666	     -6.08894173
      1.54000000	     -6.39375121	     -7.43222558	      4.22547247	     -1.02092457	      0.96632406	     -0.21587073	      7.54399342	     10.48152552	     -5.78170930	    -15.57383122	     13.38355679	     -0.96294691	     14.05300908	    -10.08797338	      5.49321991	    -25.19277433	     15.83830868	      4.00174893	      0.62606701	      7.15266018	     -6.01686453
      1.55000000	     -6.24359111	     -7.50609817	      4.19349678	     -1.01907890	      0.96606946	     -0.21481644	      7.20011293	     10.65439250	     -5.72364622	    -15.45745613	     13.48486017	     -0.99438775	     14.77593778	    -10.13062499	      5.68107813	    -26.85789029	     15.95052166	      3.94296019	      0.45040058	      7.25387985	     -5.93088183
      1.56000000	     -6.10653717	     -7.55236538	      4.16761671	     -1.01713878	      0.96583538	     -0.21384648	      6.85295431	     10.79272151	     -5.67175310	    -15.32666215	     13.60508749	     -1.03750672	     15.51423977	    -10.11689020	      5.91213211	    -28.50737567	     16.01535334	      3.87139786	      0.29556066	      7.32457231	     -5.83272060
      1.57000000	     -5.94916565	     -7.56586957	      4.12911060	     -1.01509827	      0.96567375	     -0.21294385	      6.47331504	     10.89604050	     -5.59290021	    -15.19707574	     13.71225363	     -1.06895825	     16.20846806	    -10.04767431	      6.16059706	    -30.09609857	     16.08053845	      3.78072496	      0.11852127	      7.36323050	     -5.71282517
      1.58000000	     -5.77662079	     -7.54163632	      4.07546430	     -1.01295865	      0.96558248	     -0.21211651	      6.06714603	     10.95674496	     -5.48763958	    -15.07104429	     13.83600244	     -1.08642942	     16.85135202	     -9.91551557	      6.42565520	    -31.58741183	     16.15847921	      3.69810032	     -0.07656130	      7.36607127	     -5.55604359
      1.59000000	     -5.62720755	     -7.46793528	      4.01370658	     -1.01074896	      0.96552147	     -0.21137638	      5.68472609	     10.95704693	     -5.37747946	    -14.96118074	     13.96177669	     -1.10190862	     17.48278769	     -9.69971299	      6.70948003	    -32.95415157	     16.23152936	      3.63848640	     -0.24660540	      7.31320112	     -5.39221520
      1.60000000	     -5.50281521	     -7.35806542	      3.93827166	     -1.00847908	      0.96547896	     -0.21071749	      5.33580386	     10.90871440	     -5.26942426	    -14.87648109	     14.07626849	     -1.11080494	     18.10366433	     -9.42040726	      6.99335295	    -34.17627321	     16.32885582	      3.61393616	     -0.39224242	      7.22418426	     -5.21451763
      1.61000000	     -5.36742592	     -7.20036691	      3.83687716	     -1.00608425	      0.96551344	     -0.21011022	      4.95810117	     10.80568949	     -5.15356358	    -14.78466681	     14.18148040	     -1.11476781	     18.65468625	     -9.08567854	      7.22214041	    -35.21389211	     16.43445386	      3.60527965	     -0.55066396	      7.08367980	     -5.01478450
      1.62000000	     -5.31835142	     -7.02321796	      3.72131983	     -1.00374475	      0.96546005	     -0.20955334	      4.72593869	     10.66718849	     -5.03408869	    -14.78855793	     14.32359996	     -1.10125325	     19.27080135	     -8.69643835	      7.49654500	    -36.08535108	     16.55938396	      3.74403279	     -0.62662802	      6.91706959	     -4.80371360
      1.63000000	     -5.25811289	     -6.81830529	      3.58091174	     -1.00123778	      0.96547276	     -0.20901304	      4.45086787	     10.49638815	     -4.92791729	    -14.75858395	     14.44225761	     -1.06673851	     19.82006068	     -8.29563568	      7.68229386	    -36.75686513	     16.67485458	      3.97995133	     -0.70823159	      6.72017366	     -4.55179582
      1.64000000	     -5.19141254	     -6.60712866	      3.43051457	     -0.99868551	      0.96551754	     -0.20847965	      4.16901713	     10.32169481	     -4.76943836	    -14.73609816	     14.55964614	     -1.04228756	     20.32135354	     -7.89027722	      7.86150593	    -37.23368496	     16.78209664	      4.17970271	     -0.80601820	      6.51360316	     -4.32500403
      1.65000000	     -5.14461447	     -6.40797750	      3.26645214	     -0.99603111	      0.96554414	     -0.20792775	      3.90186247	     10.15551169	     -4.63492785	    -14.70996212	     14.67938389	     -0.96588878	     20.81886542	     -7.52244954	      7.98248179	    -37.54424580	     16.89026320	      4.62984742	     -0.87662551	      6.31461615	     -4.05853243
      1.66000000	     -5.10694160	     -6.18508576	      3.09810637	     -0.99331503	      0.96557897	     -0.20738149	      3.64021372	      9.96462103	     -4.47670130	    -14.68450932	     14.77341148	     -0.95480312	     21.28748209	     -7.14513296	      8.06985755	    -37.67141783	     16.90650192	      4.77195592	     -0.94226981	      6.08330813	     -3.82409424
      1.67000000	     -5.07210949	     -5.98750901	      2.91493678	     -0.99052304	      0.96559737	     -0.20680935	      3.37529082	      9.79933246	     -4.31544637	    -14.65285133	     14.88911934	     -0.88681264	     21.74660387	     -6.83389959	      8.08518635	    -37.66138766	     16.92253251	      5.12368223	     -1.00655353	      5.87774096	     -3.55709355
      1.68000000	     -5.05462400	     -5.79975712	      2.74244307	     -0.98768588	      0.96558431	     -0.20623482	      3.12608338	      9.64521984	     -4.15113290	    -14.61531837	     14.97023470	     -0.87658408	     22.21529804	     -6.55583665	      8.07023465	    -37.52275989	     16.83774885	      5.20451797	     -1.05448426	      5.67514729	     -3.32085386
      1.69000000	     -5.03781813	     -5.63603915	      2.56098993	     -0.98478413	      0.96554326	     -0.20564414	      2.86752719	      9.51741446	     -3.97307680	    -14.56357607	     15.05531030	     -0.85627296	     22.68281232	     -6.33878390	      7.99923321	    -37.28890465	     16.71137713	      5.26068863	     -1.10411544	      5.49716556	     -3.08449094
      1.70000000	     -5.02390428	     -5.49701159	      2.37665203	     -0.98180139	      0.96547468	     -0.20504346	      2.60173281	      9.41445261	     -3.80547394	    -14.49751440	     15.13981613	     -0.82910882	     23.14761310	     -6.18593253	      7.86546135	    -36.95970119	     16.53632515	      5.25239547	     -1.15037433	      5.34246556	     -2.83930686
